<?xml version="1.0" encoding="UTF-8"?>
<svg version="1.1" xmlns="http://www.w3.org/2000/svg" width="512" height="512">
<path d="M0 0 C1.66081774 -0.00702073 3.3216352 -0.01410756 4.98245239 -0.02125549 C10.2578368 -0.04065055 15.53317728 -0.04568894 20.80859375 -0.046875 C22.15523794 -0.04753778 22.15523794 -0.04753778 23.52908707 -0.04821396 C74.65442703 -0.06141784 74.65442703 -0.06141784 100.04968262 2.94342041 C102.40370578 3.22176111 104.75888595 3.48869788 107.11425781 3.75537109 C152.67425967 8.98618275 191.71941685 21.86299385 221.35546875 59.00390625 C229.39882654 69.49577479 236.04788105 80.68556956 240.99609375 92.953125 C241.26583008 93.60643799 241.53556641 94.25975098 241.81347656 94.93286133 C247.13981142 108.83485801 249.02479668 124.01853104 250.87109375 138.703125 C250.97659546 139.52295868 251.08209717 140.34279236 251.1907959 141.18746948 C253.02837976 155.49350663 254.45590929 169.79808265 255.24609375 184.203125 C255.28772644 184.89525085 255.32935913 185.58737671 255.37225342 186.30047607 C256.24963433 201.00647437 256.40124317 215.68430033 256.37646484 230.4140625 C256.37110108 234.1979574 256.37644726 237.98173365 256.3828125 241.765625 C256.38814104 258.95605428 256.27357763 276.11524411 254.24609375 293.203125 C253.09109375 292.81125 251.93609375 292.419375 250.74609375 292.015625 C246.33748851 290.55302169 241.92135207 289.1145013 237.49609375 287.703125 C236.243125 287.3009375 234.99015625 286.89875 233.69921875 286.484375 C229.99120367 285.36111055 226.24456885 284.48499328 222.46777344 283.62304688 C221.30139343 283.35617065 220.13501343 283.08929443 218.93328857 282.81433105 C217.60312714 282.51178406 217.60312714 282.51178406 216.24609375 282.203125 C216.25053497 281.31174332 216.2549762 280.42036163 216.259552 279.50196838 C216.30030775 270.93274841 216.33041248 262.3635628 216.34971809 253.7942667 C216.35997808 249.39299312 216.37379292 244.99180218 216.39697266 240.59057617 C216.5430767 212.04121508 215.89689863 183.65461112 212.55102539 155.26660156 C212.30115003 153.13976716 212.06692123 151.01156324 211.83398438 148.8828125 C211.01620122 141.59160294 210.00650595 134.35081721 208.75390625 127.12109375 C208.63721085 126.44026733 208.52051544 125.75944092 208.40028381 125.0579834 C205.28373955 107.73807353 197.65789234 93.44358908 186.24609375 80.203125 C185.68277344 79.50703125 185.11945313 78.8109375 184.5390625 78.09375 C159.93377191 48.35995622 122.31779007 45.42683796 86.74365234 41.85107422 C-25.61724235 30.92450602 -25.61724235 30.92450602 -127.99365234 66.33056641 C-130.6356229 68.56374198 -133.19727287 70.87249236 -135.75390625 73.203125 C-136.4190625 73.78578125 -137.08421875 74.3684375 -137.76953125 74.96875 C-154.20036885 90.17111376 -162.84143661 111.91428165 -165.81640625 133.640625 C-165.97923096 134.78515137 -166.14205566 135.92967773 -166.30981445 137.10888672 C-169.78574 162.29275842 -171.90989608 187.52344125 -171.921875 212.94140625 C-171.92510638 214.59881109 -171.92847167 216.25621568 -171.93196106 217.91362 C-171.93789337 221.36665505 -171.93980732 224.81966531 -171.93920898 228.27270508 C-171.93912812 231.74834441 -171.94601681 235.22385081 -171.9597168 238.69946289 C-172.04111704 259.63434994 -171.69544807 280.34381121 -169.75390625 301.203125 C-165.71412509 297.26443567 -165.71412509 297.26443567 -162.28125 292.8125 C-161.86302979 292.1944751 -161.44480957 291.5764502 -161.01391602 290.93969727 C-160.35927368 289.95634399 -160.35927368 289.95634399 -159.69140625 288.953125 C-158.72103876 287.5188632 -157.74965003 286.08529192 -156.77734375 284.65234375 C-156.27944336 283.91677246 -155.78154297 283.18120117 -155.26855469 282.42333984 C-152.8252733 278.84190836 -150.32269824 275.30312396 -147.81640625 271.765625 C-147.31665283 271.05929932 -146.81689941 270.35297363 -146.30200195 269.62524414 C-145.28874764 268.19360966 -144.27515748 266.76221282 -143.26123047 265.33105469 C-131.28610923 248.42545755 -119.40336249 231.45570597 -107.56640625 214.453125 C-106.89262939 213.48608643 -106.21885254 212.51904785 -105.5246582 211.52270508 C-102.01114097 206.473393 -98.52773688 201.40607065 -95.08056641 196.3112793 C-85.90371962 182.79760632 -76.57995335 171.59644476 -59.75390625 168.203125 C-48.20776715 167.02420343 -38.56286971 168.48484724 -29.06640625 175.328125 C-20.15652793 182.85027006 -14.52333941 192.62274756 -8.6015625 202.49609375 C-5.12534292 208.27952824 -1.456184 213.93039088 2.23193359 219.58007812 C4.19485723 222.58900529 6.15424278 225.60017657 8.10961914 228.61401367 C15.83147585 240.5148545 23.59603476 252.38709038 31.3972168 264.23608398 C32.68866972 266.19858436 33.97900608 268.16181991 35.26831055 270.12573242 C37.16606849 273.0163901 39.06703193 275.90491531 40.96875 278.79296875 C41.54166275 279.66686752 42.1145755 280.5407663 42.70484924 281.44114685 C48.29463911 290.0986354 48.29463911 290.0986354 56.24609375 296.453125 C57.09171875 296.95328125 57.93734375 297.4534375 58.80859375 297.96875 C64.87691359 301.04180941 72.18962839 301.32458067 78.71875 299.51953125 C89.09753374 295.22915924 93.99145464 287.87381611 99.90625 278.7734375 C106.38209652 268.83233237 114.63587219 262.4071096 126.24609375 259.203125 C129.36351439 258.7846201 132.41619957 258.72554182 135.55859375 258.765625 C136.810354 258.77698486 136.810354 258.77698486 138.08740234 258.78857422 C151.93242517 259.15695024 162.03347777 265.55316048 171.51953125 275.2734375 C176.24609375 280.55606618 176.24609375 280.55606618 176.24609375 283.203125 C174.44978516 283.64011719 174.44978516 283.64011719 172.6171875 284.0859375 C137.05285069 292.94488415 107.60227009 311.7478653 88.00732422 343.19091797 C71.34369361 371.01776031 65.49093449 405.20461871 72.1171875 437.0234375 C74.11706598 444.84971846 76.81511364 452.49208794 79.53759766 460.09106445 C80.21604409 462.11354555 80.74079003 464.13188056 81.24609375 466.203125 C61.77366451 468.49505949 42.20389365 468.40680232 22.62109375 468.390625 C21.61172194 468.39022469 21.61172194 468.39022469 20.58195877 468.38981628 C-118.04601559 468.32089384 -118.04601559 468.32089384 -167.31640625 420.015625 C-190.14057741 397.11418078 -201.85993589 368.09208648 -206.02709961 336.38525391 C-206.30563883 334.28433948 -206.60567331 332.18741693 -206.90820312 330.08984375 C-211.0987362 299.81883475 -212.26908679 269.24452099 -212.14501953 238.72094727 C-212.12791544 234.48463091 -212.13814295 230.2488801 -212.15534019 226.01258278 C-212.26038742 195.39941456 -210.72911484 164.78300377 -206.37890625 134.453125 C-206.27441162 133.70112823 -206.16991699 132.94913147 -206.06225586 132.17434692 C-200.45361914 92.03950974 -183.0686795 57.6028338 -150.3984375 32.84765625 C-108.39123972 1.97463027 -50.40359466 0.13242587 0 0 Z " fill="#31C131" transform="translate(211.75390625,-0.203125)"/>
<path d="M0 0 C1.50696839 1.28352992 3.00773634 2.57440323 4.5 3.875 C5.10972656 4.35324219 5.71945312 4.83148438 6.34765625 5.32421875 C25.0130492 20.16299356 36.09276674 44.70438968 39.5 67.875 C40.26450862 82.17246945 40.73593232 97.07612956 36.5 110.875 C36.30664062 111.50728516 36.11328125 112.13957031 35.9140625 112.79101562 C27.52366668 139.38649868 8.98607355 160.74071395 -15.52929688 173.88183594 C-21.31486875 176.79755774 -27.31233591 178.98274799 -33.5 180.875 C-34.60859375 181.2153125 -35.7171875 181.555625 -36.859375 181.90625 C-64.72355393 188.84019314 -92.27283229 183.02491618 -116.875 169.5 C-122.73109063 165.96244321 -127.6169637 161.64004472 -132.5 156.875 C-133.7684375 155.6684375 -133.7684375 155.6684375 -135.0625 154.4375 C-135.866875 153.591875 -136.67125 152.74625 -137.5 151.875 C-138.15355469 151.22789062 -138.80710937 150.58078125 -139.48046875 149.9140625 C-158.03158584 130.6924231 -165.02913289 104.50042395 -164.8515625 78.43457031 C-164.26915806 50.56813588 -152.38283026 26.14622794 -132.72045898 6.60571289 C-97.61585727 -26.8524926 -38.22643766 -30.2915559 0 0 Z M-77.375 26.9375 C-80.61428155 31.41533037 -80.61974711 34.53695687 -80.59765625 39.94921875 C-80.59553383 40.97496758 -80.59553383 40.97496758 -80.59336853 42.0214386 C-80.58777876 44.20183722 -80.57522822 46.38213251 -80.5625 48.5625 C-80.55748367 50.04231622 -80.552921 51.52213406 -80.54882812 53.00195312 C-80.53781271 56.62633557 -80.52055512 60.2506577 -80.5 63.875 C-81.85363647 63.8435791 -81.85363647 63.8435791 -83.23461914 63.81152344 C-86.6098875 63.74300768 -89.98440796 63.69303716 -93.36010742 63.65527344 C-94.81595584 63.63526178 -96.27172494 63.60804323 -97.72729492 63.57324219 C-110.0321834 63.23905903 -110.0321834 63.23905903 -120.2421875 69.47265625 C-124.68246574 75.21439536 -125.08581666 79.8120406 -124.5 86.875 C-122.75941193 92.19915175 -119.23618232 95.96312495 -114.5 98.875 C-107.72954237 101.62751893 -100.77031108 101.09827115 -93.5625 101 C-92.30630859 100.99097656 -91.05011719 100.98195313 -89.75585938 100.97265625 C-86.67037478 100.94919249 -83.58528795 100.91636201 -80.5 100.875 C-80.52356567 102.19105225 -80.52356567 102.19105225 -80.54760742 103.53369141 C-80.59894376 106.81011952 -80.63644997 110.08611598 -80.66479492 113.36279297 C-80.67981825 114.77692437 -80.70024305 116.19100968 -80.72631836 117.60498047 C-80.76298954 119.64562397 -80.77979036 121.68564792 -80.79296875 123.7265625 C-80.81653442 125.56468506 -80.81653442 125.56468506 -80.84057617 127.43994141 C-80.38625321 132.02225257 -78.90420662 135.35271237 -75.78125 138.73828125 C-74.89953125 139.45564453 -74.89953125 139.45564453 -74 140.1875 C-73.4121875 140.67863281 -72.824375 141.16976562 -72.21875 141.67578125 C-67.62243887 144.88275288 -61.85246949 144.42023003 -56.5 143.875 C-50.86801553 141.16330378 -46.68545736 136.86725788 -44.3671875 131.015625 C-42.84630351 125.29646749 -43.29178625 119.3040696 -43.375 113.4375 C-43.38402344 112.22900391 -43.39304687 111.02050781 -43.40234375 109.77539062 C-43.42579832 106.80838722 -43.45862206 103.84179857 -43.5 100.875 C-42.75951416 100.89071045 -42.01902832 100.9064209 -41.25610352 100.92260742 C-37.85831527 100.98547539 -34.46064996 101.02415441 -31.0625 101.0625 C-29.89783203 101.08763672 -28.73316406 101.11277344 -27.53320312 101.13867188 C-19.69340347 101.2049237 -12.38238553 101.09967877 -6.125 95.90234375 C-5.58875 95.21269531 -5.0525 94.52304687 -4.5 93.8125 C-3.943125 93.12027344 -3.38625 92.42804688 -2.8125 91.71484375 C0.45345746 87.13667124 -0.09044565 82.32284565 -0.5 76.875 C-2.24769752 71.42629596 -5.89278162 68.08958192 -10.5 64.875 C-13.97782583 63.71572472 -16.68803257 63.76186934 -20.35546875 63.77734375 C-21.01710526 63.7787587 -21.67874176 63.78017365 -22.36042786 63.78163147 C-24.46949828 63.78722004 -26.57846177 63.79977035 -28.6875 63.8125 C-30.11913909 63.81751648 -31.55077985 63.82207913 -32.98242188 63.82617188 C-36.48831588 63.8371857 -39.9941475 63.85444245 -43.5 63.875 C-43.48428955 63.10422119 -43.4685791 62.33344238 -43.45239258 61.53930664 C-43.38955781 58.00544744 -43.35085573 54.47170629 -43.3125 50.9375 C-43.28736328 49.72513672 -43.26222656 48.51277344 -43.23632812 47.26367188 C-43.1715637 39.297647 -43.21579302 31.90080211 -48.4375 25.5 C-49.118125 24.96375 -49.79875 24.4275 -50.5 23.875 C-51.180625 23.318125 -51.86125 22.76125 -52.5625 22.1875 C-61.01388839 16.46236593 -71.15637572 19.8330318 -77.375 26.9375 Z " fill="#55D955" transform="translate(472.5,328.125)"/>
<path d="M0 0 C11.03897179 10.26669804 16.66537927 22.93589266 17.22265625 37.9609375 C16.91162806 51.74337415 11.69476013 63.40534598 2.30078125 73.328125 C-9.30746266 84.29146647 -21.59793574 87.09412599 -37.0234375 86.859375 C-49.56242733 86.39231324 -60.78916569 80.42021034 -69.40234375 71.3984375 C-79.95240201 58.72536957 -82.45886146 44.54183887 -81.08984375 28.5859375 C-78.72644113 16.36607167 -71.97490293 5.18919017 -61.80859375 -2.03515625 C-41.91019365 -14.66056517 -18.84985862 -14.72719675 0 0 Z " fill="#4AD04A" transform="translate(341.08984375,141.4140625)"/>
</svg>
