<?xml version="1.0" encoding="UTF-8"?>
<svg version="1.1" xmlns="http://www.w3.org/2000/svg" width="512" height="512">
<path d="M0 0 C1.12160204 -0.01994343 1.12160204 -0.01994343 2.2658627 -0.04028976 C4.7674161 -0.07960715 7.26825279 -0.09042237 9.77008057 -0.1010437 C11.56589113 -0.12284065 13.36168349 -0.1461848 15.15745544 -0.17095947 C20.0362061 -0.23195579 24.91476804 -0.26600726 29.79382229 -0.29139185 C32.84788029 -0.30757977 35.9018847 -0.32794234 38.95590973 -0.34942245 C48.52777714 -0.41488021 58.09951352 -0.46266077 67.67157435 -0.48705018 C78.68941623 -0.51549392 89.70468118 -0.60300559 100.72166991 -0.74205315 C109.25533409 -0.84600747 117.78827061 -0.89542715 126.32255769 -0.90469444 C131.41079176 -0.91145916 136.49642207 -0.94065113 141.58397675 -1.02725601 C178.27128137 -1.61860482 178.27128137 -1.61860482 188.18218994 7.31399536 C189.89944797 9.0872239 191.47919974 10.88997318 193.01210117 12.82394218 C195.44999536 15.71318019 198.3965533 17.94453704 201.36480713 20.26272583 C214.19578662 31.15435121 226.16072572 43.29202714 236.48980713 56.57522583 C238.09081787 58.45292131 239.69517586 60.32776628 241.30230713 62.20022583 C245.26395716 66.9554362 248.96370644 71.84543482 252.55230713 76.88772583 C253.01032715 77.5259729 253.46834717 78.16421997 253.94024658 78.82180786 C254.89483371 80.18254905 255.81745989 81.56613001 256.71124268 82.96755981 C258.45713905 85.6466661 258.45713905 85.6466661 260.73179626 88.09692383 C270.71379478 101.0207486 268.69930389 117.37473917 268.50114727 132.88125825 C268.45544269 137.16270123 268.45954608 141.44413825 268.45715332 145.7257843 C268.44611068 152.93225915 268.40145173 160.13787122 268.33355713 167.34402466 C268.24761377 176.48213491 268.21593041 185.61954481 268.20251083 194.75801563 C268.19037788 202.72943076 268.15286613 210.7007046 268.11147022 218.672014 C268.09940291 221.17398161 268.09051134 223.67594482 268.08208466 226.17792702 C268.01521888 243.13656624 267.61031056 259.98093339 266.09625244 276.87869263 C266.03543975 277.55912553 265.97462707 278.23955844 265.91197157 278.94061053 C258.35560657 361.53386285 258.35560657 361.53386285 237.00543213 388.44631958 C233.98065173 390.69931323 230.54855741 390.70062844 226.88859653 390.70386028 C225.9640994 390.70708473 225.03960227 390.71030918 224.08709008 390.71363133 C223.07494169 390.71208273 222.0627933 390.71053413 221.01997375 390.7089386 C219.40305221 390.71233693 219.40305221 390.71233693 217.75346559 390.71580392 C214.1291917 390.72215122 210.50495512 390.72131409 206.88067627 390.7204895 C204.28724621 390.72348051 201.6938166 390.7268829 199.10038757 390.73066711 C192.7799225 390.73897463 186.45946675 390.74172199 180.13899667 390.74227949 C175.00231008 390.74275455 169.86562658 390.74480881 164.72894096 390.74798012 C150.16879281 390.75678655 135.60865203 390.76139945 121.0485012 390.76064964 C120.2635096 390.76060969 119.478518 390.76056973 118.66973877 390.76052856 C117.88379003 390.76048768 117.09784129 390.7604468 116.28807592 390.76040468 C103.54617171 390.7599981 90.80429703 390.76957087 78.06240136 390.78366693 C64.98235494 390.79802305 51.90232293 390.80493755 38.82226843 390.80407315 C31.47747293 390.80374095 24.1327084 390.80649852 16.78792 390.81725121 C9.88264325 390.82729562 2.97743303 390.82702869 -3.92784691 390.81973457 C-6.46552882 390.81868564 -9.00321476 390.82106982 -11.54088974 390.82709503 C-14.99846307 390.83477417 -18.4558077 390.83019715 -21.91337585 390.82246399 C-22.92329352 390.82760755 -23.93321118 390.83275112 -24.97373241 390.83805054 C-30.53776382 390.81045081 -34.93817949 390.71857031 -39.38519287 387.01272583 C-41.21049291 383.05790908 -40.54293981 379.65428778 -39.51019287 375.57522583 C-38.67287538 373.39371973 -37.79271892 371.22847127 -36.88519287 369.07522583 C-19.22587255 327.06753051 -15.17264418 277.21641387 -13.85125732 232.16213989 C-13.68935188 226.88626984 -13.40225719 221.78016307 -12.51019287 216.57522583 C-14.08607178 216.79178833 -14.08607178 216.79178833 -15.69378662 217.01272583 C-41.45248279 220.46606248 -66.57839185 216.59083904 -88.38519287 201.59866333 C-90.84359704 199.67035256 -93.17930286 197.65509692 -95.51019287 195.57522583 C-96.31585693 194.92296021 -97.121521 194.27069458 -97.95159912 193.59866333 C-116.49828222 178.09955727 -127.36025736 154.43426625 -129.51019287 130.57522583 C-131.29532213 105.32488026 -124.5978127 80.50508475 -108.28363037 60.89944458 C-106.0784201 58.40247969 -103.8118609 55.98318758 -101.51019287 53.57522583 C-100.89788818 52.88815552 -100.2855835 52.20108521 -99.65472412 51.49319458 C-85.61693534 36.31801566 -62.89694623 26.54840558 -42.387146 25.40042114 C-32.75056977 25.11499762 -23.03487808 24.9181731 -13.51019287 26.57522583 C-13.50608398 25.92972778 -13.5019751 25.28422974 -13.4977417 24.61917114 C-13.46479224 21.68693255 -13.39414922 18.75676826 -13.32269287 15.82522583 C-13.3139917 14.30155396 -13.3139917 14.30155396 -13.30511475 12.74710083 C-13.27611084 11.76741333 -13.24710693 10.78772583 -13.21722412 9.77835083 C-13.20151367 8.87761841 -13.18580322 7.97688599 -13.1696167 7.04885864 C-11.46337195 0.64838777 -5.77510258 -0.0174976 0 0 Z " fill="#C9DBEF" transform="translate(228.51019287109375,68.42477416992188)"/>
<path d="M0 0 C1.82640581 0.70747324 3.67816297 1.34993054 5.5390625 1.9609375 C31.32626178 10.51825391 50.25996285 28.03006173 62.51171875 52.08837891 C64.54760687 56.26969478 66.06245498 60.49204928 67.41015625 64.93359375 C67.67401123 65.7855835 67.93786621 66.63757324 68.2097168 67.51538086 C70.38157025 75.24794577 70.90649545 82.69567157 70.85620117 90.68676758 C70.84770533 92.73426635 70.87654881 94.7789472 70.90820312 96.82617188 C70.9816526 110.28356913 67.91600339 122.27685935 61.52734375 134.1875 C58.87830054 139.63150829 59.61467231 143.27876932 61.41015625 148.93359375 C61.63832031 149.70348633 61.86648438 150.47337891 62.1015625 151.26660156 C62.82094234 153.64510056 63.5791433 156.00804876 64.34765625 158.37109375 C64.88037262 160.04291641 65.41292643 161.71479088 65.9453125 163.38671875 C66.77222866 165.96496849 67.61155092 168.5370346 68.46875 171.10546875 C70.13801003 176.24902599 70.98079436 180.51253172 70.41015625 185.93359375 C69.14941406 187.65600586 69.14941406 187.65600586 67.41015625 188.93359375 C58.90621434 190.04669208 49.59562222 185.59664044 41.66015625 182.87109375 C39.57977576 182.15854531 37.49855469 181.44943058 35.41326904 180.75135803 C33.53201674 180.12150565 31.65502369 179.47897301 29.77832031 178.83569336 C25.66083661 177.73290253 22.16834875 177.21502812 18.1640625 178.8515625 C17.44089844 179.27050781 16.71773437 179.68945312 15.97265625 180.12109375 C-5.36114188 191.34605181 -30.63912231 192.78733091 -53.58984375 185.80859375 C-66.25654216 181.71150645 -77.63210413 175.81896141 -87.58984375 166.93359375 C-88.39550781 166.28132812 -89.20117188 165.6290625 -90.03125 164.95703125 C-108.5779331 149.45792519 -119.43990824 125.79263417 -121.58984375 101.93359375 C-123.37497301 76.68324818 -116.67746358 51.86345267 -100.36328125 32.2578125 C-98.15807098 29.76084761 -95.89151177 27.3415555 -93.58984375 24.93359375 C-92.97753906 24.24652344 -92.36523438 23.55945313 -91.734375 22.8515625 C-70.87982913 0.30730929 -28.91123159 -11.64248055 0 0 Z " fill="#E8F2FB" transform="translate(220.58984375,97.06640625)"/>
<path d="M0 0 C0.33 0 0.66 0 1 0 C2.68012597 43.68327533 -1.46435283 112.55111843 -29.484375 147.87109375 C-32.5091554 150.1240874 -35.94124972 150.12540261 -39.60121059 150.12863445 C-40.52570773 150.1318589 -41.45020486 150.13508335 -42.40271705 150.1384055 C-43.41486544 150.1368569 -44.42701383 150.1353083 -45.46983337 150.13371277 C-47.08675491 150.1371111 -47.08675491 150.1371111 -48.73634154 150.14057809 C-52.36061543 150.14692539 -55.98485201 150.14608826 -59.60913086 150.14526367 C-62.20256092 150.14825468 -64.79599053 150.15165707 -67.38941956 150.15544128 C-73.70988463 150.1637488 -80.03034038 150.16649616 -86.35081046 150.16705366 C-91.48749705 150.16752872 -96.62418055 150.16958298 -101.76086617 150.17275429 C-116.32101432 150.18156072 -130.88115509 150.18617362 -145.44130593 150.18542381 C-146.22629753 150.18538386 -147.01128913 150.1853439 -147.82006836 150.18530273 C-148.6060171 150.18526185 -149.39196584 150.18522097 -150.20173121 150.18517885 C-162.94363542 150.18477227 -175.6855101 150.19434504 -188.42740577 150.2084411 C-201.50745219 150.22279722 -214.5874842 150.22971172 -227.6675387 150.22884732 C-235.0123342 150.22851512 -242.35709872 150.23127269 -249.70188713 150.24202538 C-256.60716388 150.25206979 -263.5123741 150.25180286 -270.41765404 150.24450874 C-272.95533595 150.24345981 -275.49302189 150.24584399 -278.03069687 150.2518692 C-281.4882702 150.25954834 -284.94561483 150.25497132 -288.40318298 150.24723816 C-289.41310065 150.25238172 -290.42301831 150.25752529 -291.46353954 150.26282471 C-301.70899656 150.21200332 -301.70899656 150.21200332 -305.8125 146.25 C-307.34461279 143.34704946 -307.28767538 141.23634803 -307 138 C-305.12612723 136.12612723 -301.93483237 136.84545296 -299.43701172 136.82641602 C-298.7477016 136.81967802 -298.05839148 136.81294003 -297.34819317 136.80599785 C-295.83930551 136.79181048 -294.33039537 136.77988414 -292.82147408 136.76989555 C-290.40532946 136.75374341 -287.98930723 136.7316169 -285.57322693 136.70777893 C-282.13050695 136.67407779 -278.68777758 136.64237772 -275.24502563 136.61212158 C-247.56955226 136.36280045 -219.92831238 136.10108089 -192.3102417 134.1607666 C-189.77633241 133.98443527 -187.24199572 133.8154428 -184.70751953 133.64746094 C-158.3695629 131.89630349 -132.16060391 129.78378791 -105.97900391 126.38232422 C-103.11625159 126.01491968 -100.25201975 125.66330352 -97.38671875 125.31640625 C-86.4474356 123.97380991 -75.56079338 122.36383792 -64.6875 120.5625 C-63.47747314 120.36930176 -62.26744629 120.17610352 -61.02075195 119.97705078 C-48.77009999 117.88882304 -40.41761125 115.29446257 -33 105 C-26.44550801 95.42147087 -22.26389661 84.72713377 -18 74 C-17.69562012 73.25395508 -17.39124023 72.50791016 -17.07763672 71.73925781 C-7.7287846 48.73219737 -3.09116694 24.55252903 0 0 Z " fill="#A5BCDB" transform="translate(495,309)"/>
<path d="M0 0 C6.12396348 4.51599542 12.11238685 9.17987599 18 14 C19.52560547 15.24330078 19.52560547 15.24330078 21.08203125 16.51171875 C35.31861495 28.30907157 48.64534461 41.39791316 60 56 C61.60101074 57.87769548 63.20536873 59.75254045 64.8125 61.625 C73.13422262 71.61365153 80.52857424 82.31383214 87.25 93.4375 C87.82439819 94.38653198 87.82439819 94.38653198 88.41040039 95.35473633 C91 99.7414732 91 99.7414732 91 102 C90.35675781 101.81824219 89.71351563 101.63648438 89.05078125 101.44921875 C71.50028874 96.53426943 71.50028874 96.53426943 53.44140625 94.8671875 C52.73402817 94.86623077 52.02665009 94.86527405 51.2978363 94.86428833 C49.80947785 94.86361128 48.32111636 94.86543227 46.83276367 94.86962891 C44.57268538 94.8749759 42.3128065 94.86967188 40.05273438 94.86328125 C38.5989579 94.86394227 37.14518155 94.86522393 35.69140625 94.8671875 C34.38373291 94.86831543 33.07605957 94.86944336 31.72875977 94.87060547 C28.08031147 94.99721305 24.60281492 95.4302819 21 96 C19.10747405 96.15290607 17.21049586 96.26105646 15.3125 96.3125 C14.40113281 96.34988281 13.48976563 96.38726562 12.55078125 96.42578125 C10 96 10 96 7.87207031 94.64233398 C4.91461351 90.46803105 5.45602361 86.29003424 5.49609375 81.296875 C5.48667252 80.22745667 5.47725128 79.15803833 5.46754456 78.05621338 C5.43886214 74.62061722 5.43581134 71.18570596 5.4375 67.75 C5.41562624 47.62322586 4.21654542 28.1689542 0.39353943 8.37908936 C-0.07271324 5.56042196 -0.15410984 2.85103198 0 0 Z " fill="#357BF9" transform="translate(405,69)"/>
<path d="M0 0 C24.17223302 4.24074264 46.28904507 19.38024713 60.37890625 39.28515625 C75.4734076 61.48555784 82.83508163 88.45541579 77.87133789 115.23730469 C75.71409783 125.614977 72.93695967 137.0945605 67 146 C67.33726128 151.73077724 68.70133632 156.78166818 70.5390625 162.19140625 C71.04208316 163.72837938 71.54467457 165.26549304 72.046875 166.80273438 C72.83573556 169.18972609 73.62919576 171.57497412 74.43066406 173.95776367 C75.20900587 176.28156762 75.96879623 178.61082547 76.7265625 180.94140625 C77.0905162 181.99794151 77.0905162 181.99794151 77.46182251 183.07582092 C78.964082 187.74279163 79.17090521 191.23551142 78 196 C75.64126944 198.35873056 75.13080195 198.28856471 71.92260742 198.29345703 C66.98918925 198.17736791 62.84916557 196.97017892 58.23828125 195.3046875 C56.60878161 194.74852898 54.97922257 194.19254447 53.34960938 193.63671875 C50.8198981 192.75529827 48.29241566 191.86790914 45.76635742 190.97607422 C43.30362159 190.11208165 40.83414635 189.27009385 38.36328125 188.4296875 C37.2380883 188.02047562 37.2380883 188.02047562 36.09016418 187.60299683 C31.35349381 186.00205301 28.71668915 185.81946541 24 188 C22.92363281 188.46277344 21.84726563 188.92554688 20.73828125 189.40234375 C19.60777344 189.90894531 18.47726563 190.41554688 17.3125 190.9375 C8.34478127 194.85338406 -0.25191511 197.20097665 -10 198 C-9.67 194.04 -9.34 190.08 -9 186 C-7.61425781 185.52949219 -6.22851562 185.05898438 -4.80078125 184.57421875 C-2.97125154 183.94561111 -1.14183011 183.31668828 0.6875 182.6875 C1.59951172 182.37876953 2.51152344 182.07003906 3.45117188 181.75195312 C8.74982507 179.95850638 8.74982507 179.95850638 13.58203125 177.20703125 C21.84970538 173.07987244 35.08556156 180.0494542 43.36987305 182.7824707 C45.48783488 183.47796003 47.60897967 184.16301677 49.73046875 184.84765625 C50.98239014 185.26023682 52.23431152 185.67281738 53.52416992 186.09790039 C56.89361972 186.97239059 59.54203715 187.33602839 63 187 C65.36470282 185.06004923 65.36470282 185.06004923 65.328125 181.54296875 C65.18752567 176.16504446 63.47470493 171.36373394 61.75 166.3125 C61.10930961 164.36200064 60.46868436 162.41147989 59.828125 160.4609375 C58.97487968 157.9055997 58.11814339 155.35146878 57.25976562 152.79785156 C56.66372321 151.0141991 56.08117688 149.22605139 55.5 147.4375 C55.1803125 146.48746094 54.860625 145.53742188 54.53125 144.55859375 C53.22960615 138.28964728 56.7554656 132.90210751 59.33203125 127.3515625 C64.06912256 115.75144441 65.72898328 104.6767457 65.5625 92.1875 C65.55790771 91.49100342 65.55331543 90.79450684 65.54858398 90.0769043 C65.44673439 78.81027616 64.449082 68.45234887 60 58 C59.55793213 56.95803467 59.55793213 56.95803467 59.10693359 55.89501953 C55.13602398 46.84018923 50.23469876 38.69806987 44 31 C43.39800781 30.23429687 42.79601562 29.46859375 42.17578125 28.6796875 C30.89069311 15.09972819 15.9429914 7.73560489 0 1 C0 0.67 0 0.34 0 0 Z " fill="#A5BCDB" transform="translate(225,98)"/>
<path d="M0 0 C6.80186137 4.69619349 13.21175219 10.25402521 15.52734375 18.4921875 C17.00667209 29.21731794 17.40109594 40.7368573 11.91796875 50.32421875 C11.42039063 51.26136719 10.9228125 52.19851562 10.41015625 53.1640625 C6.78076422 59.7222895 2.56884016 65.65195888 -2.06640625 71.53515625 C-6.44048241 77.58765698 -8.00574049 83.49731872 -9.45507812 90.66601562 C-10.16238151 93.81188802 -10.73446084 95.96026695 -12.98828125 98.3203125 C-16.26484335 99.89135067 -18.64111839 99.20008748 -22.08203125 98.32421875 C-24.4244351 96.63248264 -25.00972057 95.73463071 -25.515625 92.86328125 C-25.5354907 78.04347209 -20.0763339 67.50197975 -11.51171875 55.80859375 C-11.06844238 55.19943115 -10.62516602 54.59026855 -10.16845703 53.96264648 C-9.30478754 52.78263477 -8.43136412 51.60967332 -7.54638672 50.44555664 C-2.73634174 43.93700631 -0.65298521 37.86574088 -0.64453125 29.69921875 C-0.62519531 28.44882813 -0.60585937 27.1984375 -0.5859375 25.91015625 C-1.17308697 21.66603649 -2.3032025 19.56381055 -5.08203125 16.32421875 C-10.30662134 13.36932764 -16.25892555 13.57608464 -22.08203125 14.32421875 C-26.18891833 16.00005884 -28.44812959 18.41562637 -30.95703125 22.01171875 C-31.97961346 25.02265525 -32.30111378 27.25451924 -32.51953125 30.38671875 C-32.79002943 33.70783535 -33.12036467 35.40088558 -34.64453125 38.44921875 C-37.62773497 40.74399084 -39.41093876 40.8834549 -43.08203125 40.890625 C-46.04074166 40.05270897 -47.23317069 38.76117003 -49.08203125 36.32421875 C-51.04361304 27.2022617 -48.60409405 19.30601367 -44.203125 11.3984375 C-41.09713847 6.89675905 -37.78096353 4.05858037 -33.08203125 1.32421875 C-32.42976563 0.89496094 -31.7775 0.46570313 -31.10546875 0.0234375 C-22.54445995 -4.78593231 -8.58388639 -4.73192964 0 0 Z " fill="#377DFA" transform="translate(212.08203125,128.67578125)"/>
<path d="M0 0 C2.86848669 1.05522408 5.39012661 2.54566424 8 4.125 C8.76562256 4.56875977 9.53124512 5.01251953 10.32006836 5.46972656 C12.88977208 6.96380567 15.44449724 8.48177754 18 10 C20.85254025 11.67039286 23.70823452 13.33531203 26.56396484 15.00024414 C28.58003037 16.17669274 30.5946579 17.35560876 32.60791016 18.53686523 C39.97655222 22.85318321 47.40953782 27.04135246 54.875 31.1875 C62.43549974 35.40050871 69.96021222 39.65953501 77.375 44.125 C78.48077393 44.78085083 78.48077393 44.78085083 79.60888672 45.44995117 C83.08165181 47.57044133 85.96096404 49.35399146 88 53 C88.54930341 56.68818005 88.23375591 58.53248818 86.5625 61.875 C83.33330132 64.55287208 81.66182283 64.55237124 77.58032227 64.44189453 C72.51514516 63.5744548 68.47622365 60.70363554 64.1875 58 C62.05181549 56.70402327 59.9150526 55.40982236 57.77734375 54.1171875 C56.11227783 53.09963379 56.11227783 53.09963379 54.41357422 52.06152344 C49.32534684 48.98864459 44.16395516 46.04868715 38.99435425 43.11535645 C37.24689773 42.12323869 35.50121652 41.12806942 33.75610352 40.13183594 C28.22974242 36.9770633 22.6997297 33.82873442 17.16796875 30.68344116 C14.60328989 29.22469207 12.03955539 27.76428827 9.47595215 26.3036499 C7.67144081 25.27643631 5.86553332 24.25170931 4.05957031 23.22705078 C2.95967773 22.60040527 1.85978516 21.97375977 0.7265625 21.328125 C-0.23685059 20.7805957 -1.20026367 20.23306641 -2.19287109 19.66894531 C-10.69207921 14.61584158 -10.69207921 14.61584158 -12 12 C-12.56872038 4.9478673 -12.56872038 4.9478673 -10.5 1.5 C-7.03377309 -0.57973614 -3.90388919 -0.54249756 0 0 Z " fill="#337AFA" transform="translate(20,64)"/>
<path d="M0 0 C1.26811523 -0.01260864 2.53623047 -0.02521729 3.84277344 -0.03820801 C5.22331295 -0.03104817 6.60384739 -0.02284418 7.984375 -0.01367188 C9.40397406 -0.0163675 10.82357131 -0.02025051 12.24316406 -0.02526855 C15.21567394 -0.03116045 18.18770241 -0.02261142 21.16015625 -0.00390625 C24.96696287 0.01888413 28.77264149 0.00575925 32.57940674 -0.01819611 C35.51001456 -0.03266301 38.44035574 -0.02804423 41.37097168 -0.01768494 C42.77437474 -0.01502007 44.17780215 -0.01827905 45.58117676 -0.02760315 C47.54369635 -0.03778128 49.50630102 -0.01951228 51.46875 0 C52.58475586 0.00318237 53.70076172 0.00636475 54.85058594 0.00964355 C58.37643133 0.63066636 59.55273304 1.73650375 61.734375 4.51757812 C62.265625 6.51757812 62.265625 6.51757812 62.234375 8.51757812 C62.24984375 9.50757813 62.24984375 9.50757813 62.265625 10.51757812 C61.48338263 13.46249057 60.08885796 14.61339613 57.734375 16.51757812 C54.85058594 17.0255127 54.85058594 17.0255127 51.46875 17.03515625 C50.20063477 17.04776489 48.93251953 17.06037354 47.62597656 17.07336426 C46.24543705 17.06620442 44.86490261 17.05800043 43.484375 17.04882812 C42.06477594 17.05152375 40.64517869 17.05540676 39.22558594 17.0604248 C36.25307606 17.0663167 33.28104759 17.05776767 30.30859375 17.0390625 C26.50178713 17.01627212 22.69610851 17.029397 18.88934326 17.05335236 C15.95873544 17.06781926 13.02839426 17.06320048 10.09777832 17.05284119 C8.69437526 17.05017632 7.29094785 17.0534353 5.88757324 17.0627594 C3.92505365 17.07293753 1.96244898 17.05466853 0 17.03515625 C-1.11600586 17.03197388 -2.23201172 17.0287915 -3.38183594 17.0255127 C-6.90768133 16.40448989 -8.08398304 15.2986525 -10.265625 12.51757812 C-10.796875 10.51757812 -10.796875 10.51757812 -10.765625 8.51757812 C-10.78109375 7.52757812 -10.78109375 7.52757812 -10.796875 6.51757812 C-9.30398497 0.89728626 -5.23640274 0.01493199 0 0 Z " fill="#337AFA" transform="translate(26.265625,151.482421875)"/>
<path d="M0 0 C3.60132576 1.81402941 5.71738816 5.00951991 8.09179688 8.17773438 C8.64971924 8.89356689 9.2076416 9.60939941 9.7824707 10.34692383 C10.92911928 11.82048854 12.06887001 13.29944669 13.20166016 14.78369141 C15.16138006 17.34550447 17.16294317 19.87195172 19.16967773 22.39697266 C20.51967876 24.10307918 21.85365644 25.82074939 23.18554688 27.54101562 C24.99480667 29.87057223 26.8518841 32.14890489 28.74804688 34.40820312 C29.21509033 34.97837158 29.68213379 35.54854004 30.16333008 36.13598633 C31.44406404 37.69873356 32.7419612 39.24737026 34.04101562 40.79492188 C36.42323083 44.93925288 36.26273494 47.20441774 35.84179688 51.92773438 C34.77929688 54.36523438 34.77929688 54.36523438 32.84179688 55.92773438 C29.23983396 56.92827963 26.95621821 57.4257067 23.49023438 55.87695312 C19.97257538 53.28799761 17.52722945 50.22290721 14.84179688 46.80273438 C14.28218262 46.10204834 13.72256836 45.4013623 13.14599609 44.67944336 C7.91583144 38.09977069 2.80393579 31.42803668 -2.25585938 24.71679688 C-4.56026041 21.67268385 -6.99113667 18.76887155 -9.47070312 15.86523438 C-11.62905255 13.09481571 -12.62680567 11.14334637 -12.84570312 7.61523438 C-12.09389851 3.58282779 -11.45463767 2.28233048 -8.15820312 -0.07226562 C-4.9487542 -1.14208193 -3.19935308 -1.01049872 0 0 Z " fill="#337AFA" transform="translate(108.158203125,46.072265625)"/>
<path d="M0 0 C3.38031589 1.18767855 3.93216817 1.89825225 6 5 C6.82989594 9.66488876 6.61181179 13.03294265 4.0625 17.0625 C-0.05275854 19.66603091 -3.25387412 19.92261139 -8 19 C-10.89115314 17.33758695 -11.69207311 16.08584747 -12.59375 12.90625 C-13.31784262 8.7287926 -13.42885043 6.7098214 -11.1875 3 C-7.47497161 -0.39431167 -4.97635105 -0.25739747 0 0 Z " fill="#377DFA" transform="translate(197,238)"/>
<path d="M0 0 C0.33 0 0.66 0 1 0 C1.10947633 10.72867997 0.96288008 21.3051534 0 32 C-0.33 32 -0.66 32 -1 32 C-1.34179688 28.97265625 -1.34179688 28.97265625 -1.68359375 25.9453125 C-1.91292961 23.92595684 -1.91292961 23.92595684 -3 22 C-2.87929677 20.32471927 -2.68027848 18.6547382 -2.44140625 16.9921875 C-2.30283203 16.00605469 -2.16425781 15.01992188 -2.02148438 14.00390625 C-1.87001953 12.97136719 -1.71855469 11.93882812 -1.5625 10.875 C-1.41490234 9.83472656 -1.26730469 8.79445313 -1.11523438 7.72265625 C-0.74905495 5.14758801 -0.3770787 2.57349101 0 0 Z " fill="#AFC3E1" transform="translate(495,309)"/>
</svg>
